<?xml version="1.0" standalone="no"?>
<!DOCTYPE svg PUBLIC "-//W3C//DTD SVG 20010904//EN"
 "http://www.w3.org/TR/2001/REC-SVG-20010904/DTD/svg10.dtd">
<svg version="1.0" xmlns="http://www.w3.org/2000/svg"
 width="1122.000000pt" height="1280.000000pt" viewBox="0 0 1122.000000 1280.000000"
 preserveAspectRatio="xMidYMid meet">
<metadata>
Created by potrace 1.15, written by Peter Selinger 2001-2017
</metadata>
<g transform="translate(0.000000,1280.000000) scale(0.100000,-0.100000)"
fill="#000000" stroke="none">
<path d="M7120 12794 c-8 -3 -83 -121 -166 -262 -120 -206 -154 -257 -170
-255 -10 1 -55 5 -99 8 l-80 7 -42 -66 -43 -66 -72 26 c-108 39 -208 92 -345
183 -150 98 -193 121 -233 121 -89 0 -117 -61 -175 -375 -129 -707 -442 -1566
-889 -2440 -329 -642 -642 -1116 -899 -1362 -156 -148 -265 -197 -347 -154
l-41 21 -14 -34 c-34 -82 -106 -303 -120 -371 -20 -100 -19 -138 5 -160 32
-29 82 -14 167 51 88 68 452 445 571 591 155 192 347 477 491 731 29 50 55 92
58 92 2 0 -14 -35 -38 -77 -23 -43 -239 -456 -479 -919 l-437 -841 -522 -862
c-288 -473 -528 -861 -534 -861 -7 0 -36 -42 -66 -93 -57 -96 -242 -386 -648
-1012 -625 -966 -924 -1482 -1131 -1960 -24 -55 -57 -127 -73 -160 -17 -33
-182 -478 -369 -989 -262 -718 -337 -934 -329 -948 7 -13 1 -45 -21 -116 -25
-81 -29 -107 -24 -155 4 -31 11 -57 15 -57 5 0 9 -7 9 -15 0 -21 48 2 78 38
13 15 29 24 34 20 7 -3 8 -1 4 5 -8 14 33 74 46 66 4 -3 16 0 25 6 16 9 15 10
-4 5 -13 -4 -23 -3 -23 1 0 16 84 94 101 94 20 0 1323 1482 1357 1544 13 24
32 46 41 49 19 4 175 209 293 382 283 416 572 925 1138 2005 122 234 263 499
312 589 52 95 91 177 92 195 1 21 163 314 490 886 l489 855 1060 1630 1061
1630 433 873 c238 480 433 877 433 881 0 5 -20 35 -45 67 -25 31 -45 62 -45
68 0 9 149 269 256 448 l52 86 -39 69 c-72 123 -187 222 -305 264 -57 19 -211
34 -244 23z m-914 -690 c109 -53 200 -98 202 -99 2 -2 -200 -302 -450 -667
l-453 -663 -272 -525 c-150 -289 -273 -522 -273 -518 0 3 30 69 66 145 234
492 562 1307 865 2148 97 268 100 275 109 275 4 0 96 -43 206 -96z"/>
<path d="M2958 233 c7 -3 16 -2 19 1 4 3 -2 6 -13 5 -11 0 -14 -3 -6 -6z"/>
<path d="M2818 223 c6 -2 18 -2 25 0 6 3 1 5 -13 5 -14 0 -19 -2 -12 -5z"/>
<path d="M2683 213 c9 -2 23 -2 30 0 6 3 -1 5 -18 5 -16 0 -22 -2 -12 -5z"/>
<path d="M2568 203 c12 -2 30 -2 40 0 9 3 -1 5 -23 4 -22 0 -30 -2 -17 -4z"/>
<path d="M2443 193 c9 -2 23 -2 30 0 6 3 -1 5 -18 5 -16 0 -22 -2 -12 -5z"/>
<path d="M270 175 c-19 -7 -28 -13 -20 -13 8 0 31 6 50 13 19 7 28 13 20 13
-8 0 -31 -6 -50 -13z"/>
<path d="M2308 183 c12 -2 30 -2 40 0 9 3 -1 5 -23 4 -22 0 -30 -2 -17 -4z"/>
<path d="M2183 173 c15 -2 37 -2 50 0 12 2 0 4 -28 4 -27 0 -38 -2 -22 -4z"/>
<path d="M2058 163 c12 -2 32 -2 45 0 12 2 2 4 -23 4 -25 0 -35 -2 -22 -4z"/>
<path d="M1928 153 c12 -2 32 -2 45 0 12 2 2 4 -23 4 -25 0 -35 -2 -22 -4z"/>
<path d="M1798 143 c17 -2 47 -2 65 0 17 2 3 4 -33 4 -36 0 -50 -2 -32 -4z"/>
<path d="M1673 133 c15 -2 39 -2 55 0 15 2 2 4 -28 4 -30 0 -43 -2 -27 -4z"/>
<path d="M1543 123 c15 -2 39 -2 55 0 15 2 2 4 -28 4 -30 0 -43 -2 -27 -4z"/>
<path d="M1423 113 c15 -2 39 -2 55 0 15 2 2 4 -28 4 -30 0 -43 -2 -27 -4z"/>
<path d="M1287 103 c18 -2 50 -2 70 0 21 2 7 4 -32 4 -38 0 -55 -2 -38 -4z"/>
<path d="M975 84 c-220 -18 -665 -53 -750 -58 -49 -3 -60 -2 -35 3 l35 8 -37
2 c-24 1 -38 -4 -39 -11 0 -7 -5 -2 -10 11 -11 29 -21 24 -12 -7 8 -31 -41
-34 798 38 182 15 303 27 270 27 -33 0 -132 -6 -220 -13z"/>
<path d="M408 53 c7 -3 16 -2 19 1 4 3 -2 6 -13 5 -11 0 -14 -3 -6 -6z"/>
<path d="M323 43 c9 -2 23 -2 30 0 6 3 -1 5 -18 5 -16 0 -22 -2 -12 -5z"/>
</g>
</svg>
